# xmcd
#
# Track frame offsets: 
#        150
#        14175
#        27150
#        44764
#
# Disc length: 806 seconds
#
# Revision: 2
# Processed by: cddbd v1.5.1PL2 Copyright (c) Steve Scherf et al.
# Submitted via: ExactAudioCopy v0.95b4
#
DISCID=33032404
DTITLE=Sherry Rich - Is That All You Wanted
DYEAR=1997
DGENRE=Country
TTITLE0=Is that all you wanted
TTITLE1=Jetstream over Nashville
TTITLE2=Young love drives
TTITLE3=Lonely and far from home
EXTD=
EXTT0=
EXTT1=
EXTT2=
EXTT3=
PLAYORDER=
